<svg width="230" height="732" viewBox="0 0 230 732" fill="none" xmlns="http://www.w3.org/2000/svg">
<path d="M33.4202 225.522C42.6449 217.902 111.974 152.928 118.391 147.771C129.621 138.833 233.499 41.8298 233.442 40.2828C233.442 33.2927 226.223 36.5012 209.263 51.1691L199.293 59.7636C224.103 33.1207 223.759 34.152 222.556 30.3131C219.748 21.5468 215.508 28.1931 203.934 39.767C182.907 60.7948 147.096 94.5424 132.887 106.804C125.782 112.992 39.7228 191.946 36.1131 194.754C28.6073 200.655 27.9198 202.145 31.243 204.895C32.79 206.213 33.4202 206.271 34.6234 205.067C36.8007 202.89 48.26 195.785 48.7757 196.301C49.0049 196.53 43.6189 202.374 36.6861 209.307C32.2169 213.776 29.1804 216.813 27.2323 218.99C22.4194 224.605 24.1955 230.278 33.4202 225.522Z" fill="#00C2FF"/>
<path d="M546.051 685.44C560.203 669.226 718.743 510.686 720.576 510.916C724.873 511.431 722.467 501.232 717.024 495.675C709.862 488.398 631.996 403.771 588.737 358.679C583.351 353.064 564.673 334.614 547.254 317.655C503.365 274.912 507.376 280.068 476.78 251.764C433.464 211.656 413.295 194.124 339.498 132.358C307.87 105.887 264.095 70.8215 244.328 55.8672C230.405 45.3819 232.525 52.6586 239.401 60.6801C263.752 88.8127 408.826 234.002 444.35 265.171C449.392 269.64 505.199 320.29 513.564 327.51C532.128 343.323 548.171 357.991 578.768 386.983C601.686 408.641 693.303 491.549 698.46 495.675C710.034 504.957 711.581 501.691 686.313 521.917C664.598 539.392 642.997 558.128 625.923 574.171C638.241 558.644 645.69 547.184 683.735 508.223C684.594 507.363 684.651 505.931 683.907 504.957C681.615 502.092 654.227 528.792 626.094 561.279C620.365 567.925 611.14 578.411 605.64 584.599C577.679 615.997 539.52 663.783 524.279 685.67C523.305 686.988 521.872 687.847 520.268 687.962C518.664 688.076 517.059 687.503 515.856 686.415C495.63 666.647 445.725 615.825 437.933 606.772C401.148 564.144 384.876 546.84 325.403 487.252C256.303 418.038 228.514 392.426 154.716 329.63C116.901 297.429 100.399 284.136 71.0636 262.02C55.7655 250.503 40.582 238.872 37.3161 236.294C27.4038 228.329 25.7421 228.158 25.7422 235.148C25.7421 239.617 26.5443 240.419 54.5623 262.249C89.3412 289.35 99.9411 298.69 156.435 352.09C167.952 362.919 180.844 374.779 185.084 378.446C193.392 385.494 250.001 438.665 257.449 446.457C262.434 451.671 261.574 450.926 246.391 437.462C228.572 421.705 196.428 394.26 183.078 383.316C130.824 340.802 101.087 315.076 100.056 311.639C98.1076 305.221 70.8345 288.949 69.5167 293.476C66.8811 302.758 73.3556 300.981 107.791 331.406C121.714 343.725 131.683 352.09 174.828 387.556C213.102 419.069 263.064 463.073 295.437 493.841C334.857 531.313 420.801 608.32 484.171 673.638C518.549 709.047 516.945 707.099 516.887 695.009L520.554 699.249C527.373 706.984 527.029 707.099 546.051 685.44ZM475.634 285.454C467.956 278.235 454.492 265.801 445.668 257.894C428.594 242.539 349.754 165.876 287.587 102.449C338.18 146.625 389.976 194.41 465.722 272.448C493.167 300.695 496.604 305.164 475.634 285.454ZM692.215 480.95C686.943 476.939 671.015 460.208 653.425 444.91C633.887 428.008 615.036 408.584 595.269 391.682C563.355 364.351 422.348 218.188 380.98 179.685L353.077 153.73C319.845 122.789 428.364 217.787 435.24 223.975C459.877 246.206 521.758 303.273 523.706 305.107C531.154 311.753 622.198 403.943 639.846 422.736C649.872 433.451 685.282 472.871 689.006 476.71C694.621 482.554 695.194 483.241 692.215 480.95Z" fill="#00C2FF"/>
</svg>
