<svg width="298" height="271" viewBox="0 0 298 271" fill="none" xmlns="http://www.w3.org/2000/svg">
<path d="M151.442 1.82167L151.454 1.8168C153.627 0.873974 156.927 0.755367 160.383 1.41939C163.819 2.07963 167.226 3.47938 169.582 5.3758L169.593 5.38427L169.604 5.39245C174.377 9.02544 181.457 12.0053 189.716 14.289C197.993 16.5776 207.53 18.1876 217.277 19.0391C236.732 20.7386 257.201 19.4311 270.236 14.3321C274.627 12.6597 279.593 11.7564 284.074 11.6759C288.595 11.5946 292.458 12.3528 294.756 13.8422C295.883 14.5727 296.577 15.4404 296.856 16.4255C297.134 17.4107 297.04 18.6651 296.294 20.2526C294.779 23.4795 290.711 27.7768 282.786 33.1706L282.785 33.1717C255.902 51.5491 235.856 70.9962 214.53 99.9533L214.529 99.9538C208.807 107.734 203.437 112.833 198.419 115.437C193.452 118.015 188.838 118.154 184.45 116.022C181.966 114.774 180.656 113.081 180.362 110.8C180.056 108.421 180.83 105.231 182.99 101.001C187.303 92.5552 196.83 80.543 212.334 63.7268C217.374 58.3489 221.769 53.4064 224.786 49.8021C226.293 48.0032 227.469 46.5217 228.212 45.4801C228.576 44.9696 228.869 44.5207 229.038 44.1756C229.108 44.033 229.227 43.7729 229.243 43.4854C229.251 43.3342 229.239 43.0147 229.001 42.7226C228.736 42.3986 228.379 42.3287 228.159 42.3287C227.962 42.3287 227.754 42.3812 227.636 42.4119C227.481 42.4524 227.294 42.5089 227.084 42.5772C226.661 42.7143 226.099 42.9129 225.421 43.1637C224.061 43.6662 222.2 44.3907 219.975 45.2835C215.522 47.0698 209.589 49.5379 203.252 52.2695L203.251 52.2701C174.692 64.6247 147.062 81.3044 129.254 95.3148C120.376 102.299 113.836 108.699 110.889 113.627C109.437 116.056 108.698 118.389 109.344 120.326C110.024 122.366 112.044 123.479 114.874 123.894L114.875 123.894C139.167 127.436 155.152 145.701 159.8 165.823C164.447 185.938 157.74 207.74 136.801 218.493C111.927 231.199 88.1695 228.527 72.7411 216.482C57.329 204.45 50.0179 182.903 58.3455 157.37L58.3482 157.362L58.3507 157.354C58.92 155.501 59.4132 153.808 59.7241 152.572C59.878 151.96 59.9953 151.428 60.0512 151.036C60.0774 150.852 60.1004 150.632 60.0853 150.431C60.0787 150.342 60.0587 150.15 59.9571 149.95C59.8338 149.708 59.529 149.369 59.018 149.369C56.6004 149.369 53.764 150.355 50.6742 152.037C47.5645 153.73 44.1026 156.182 40.4085 159.238C33.0186 165.35 24.6173 173.946 16.1335 183.92C-0.830864 203.864 -18.2147 229.423 -28.5698 251.884C-30.7607 256.593 -32.5106 260.19 -34.0555 262.904C-35.6064 265.628 -36.9074 267.383 -38.1742 268.468C-39.3998 269.518 -40.6102 269.956 -42.071 269.997C-43.5918 270.039 -45.4093 269.652 -47.8374 268.949C-49.9848 268.325 -51.58 267.403 -52.7093 266.162C-53.8337 264.925 -54.5622 263.299 -54.8549 261.148C-55.4493 256.782 -54.2276 250.421 -51.0667 241.367L-51.0657 241.364C-42.6054 216.894 -25.2141 191.447 -4.23028 170.464C16.7587 149.476 41.2503 133.046 63.8408 126.506L63.8422 126.506C67.2543 125.513 69.6722 124.446 72.2915 122.188C74.8591 119.973 77.5972 116.632 81.7284 111.185L81.7289 111.185C111.863 71.3893 153.018 53.3724 197.165 34.0461C198.645 33.3981 200.128 32.7487 201.615 32.0969L204.295 30.9217L201.456 30.211L186.687 26.5142C186.686 26.5141 186.686 26.514 186.685 26.5139C172.477 22.924 160.725 17.5983 154.071 12.5998C150.7 10.0682 148.832 7.7638 148.404 5.96099C148.204 5.11652 148.321 4.40103 148.743 3.76291C149.186 3.09353 150.026 2.41553 151.442 1.8216L151.442 1.82167ZM101.945 212.784L101.947 212.783C118.508 208.721 129.706 195.374 133.538 180.772C137.369 166.172 133.875 150.12 120.797 140.754C115.405 136.885 109.89 134.89 105.123 134.867C100.324 134.843 96.2527 136.832 94.015 140.909L94.0129 140.913C85.0745 157.367 81.6613 176.404 83.061 190.761C83.7598 197.927 85.6694 204.045 88.8057 208.082C90.3826 210.112 92.2852 211.635 94.5121 212.473C96.7441 213.314 99.2364 213.442 101.945 212.784Z" fill="#FA8094" stroke="#FFFDFD" stroke-width="2"/>
</svg>
