<svg width="120" height="107" viewBox="0 0 120 107" fill="none" xmlns="http://www.w3.org/2000/svg">
<path d="M2.33882 52.0024L2.33965 52.0019L28.19 52.2768C33.3245 52.73 37.3284 53.6975 40.1275 54.8581C41.528 55.4387 42.6006 56.0568 43.3586 56.6623C44.1265 57.2759 44.5075 57.8246 44.6448 58.2492C44.7655 58.6225 44.7208 58.9551 44.4673 59.3084C44.1832 59.7044 43.6036 60.1614 42.5819 60.5807C40.5417 61.418 37.0938 61.9605 32.0627 61.831C21.7258 61.505 12.4124 59.7449 6.65767 57.5331C5.22325 56.9818 4.03253 56.4109 3.11141 55.8407C2.17836 55.2632 1.58256 54.7234 1.26769 54.259C0.972184 53.8231 0.960845 53.5216 1.04764 53.2739C1.15476 52.9683 1.49055 52.521 2.33882 52.0024Z" fill="#FCFEFF" stroke="#FA8094" stroke-width="2"/>
<path d="M64.1229 71.7167L64.1254 71.7181C64.3129 71.8187 64.658 72.1815 65.0667 73.0515C65.453 73.8737 65.8234 74.9886 66.1627 76.3389C66.84 79.034 67.362 82.5369 67.6723 86.212C67.9824 89.8836 68.0784 93.6938 67.9146 96.997C67.7494 100.328 67.3245 103.018 66.6625 104.548C66.5439 104.792 66.2642 105.075 65.6856 105.334C65.1031 105.595 64.3074 105.789 63.3255 105.899C61.3653 106.117 58.8465 105.977 56.2527 105.535C53.6639 105.095 51.0582 104.364 48.9276 103.437C46.7489 102.488 45.2483 101.411 44.6341 100.381L44.6288 100.373L44.6233 100.364C44.5987 100.324 44.537 100.193 44.469 99.9132C44.4044 99.6475 44.3468 99.3022 44.2994 98.8771C44.2049 98.0274 44.1588 96.9264 44.1588 95.6375C44.1588 93.0636 44.3422 89.8194 44.6535 86.5002C44.9647 83.1826 45.4017 79.8103 45.9047 76.9822C46.4149 74.1142 46.9725 71.9312 47.4863 70.8938C47.8004 70.2834 48.4618 69.7434 49.5415 69.3621C50.619 68.9817 52.0215 68.7953 53.6342 68.8343C56.8587 68.9124 60.736 69.8869 64.1229 71.7167Z" fill="#FCFEFF" stroke="#FA8094" stroke-width="2"/>
<path d="M69.0787 33.7171L69.0788 33.719C69.1921 37.9632 68.2049 40.5994 66.7608 42.1731C65.3237 43.7391 63.2844 44.4155 60.9357 44.4231C58.5789 44.4308 55.9939 43.7595 53.6374 42.7253C51.2807 41.691 49.2316 40.3284 47.9299 39.0257C46.4844 37.5584 45.4046 34.5892 44.7981 30.6921C44.2006 26.853 44.0925 22.3211 44.4207 17.9513C44.7494 13.576 45.511 9.4224 46.6205 6.32726C47.1762 4.77688 47.8022 3.54079 48.469 2.67995C49.1388 1.81518 49.7711 1.42612 50.3325 1.34466C54.9155 0.731678 58.252 0.948241 60.713 1.9C63.1259 2.8332 64.7928 4.51053 65.9822 7.06054C67.191 9.65185 67.8974 13.1287 68.3321 17.5978C68.7659 22.057 68.922 27.4093 69.0787 33.7171Z" fill="white" stroke="#FA8094" stroke-width="2"/>
<path d="M72.9504 53.1349C72.8717 52.7255 72.9181 52.2714 73.1548 51.7506C73.1777 51.7342 73.2163 51.7091 73.277 51.6767C73.4695 51.5741 73.7768 51.4559 74.2182 51.334C75.095 51.092 76.3417 50.878 77.8817 50.7008C80.9514 50.3476 85.0462 50.1555 89.3613 50.131C93.673 50.1065 98.1795 50.2494 102.068 50.5605C105.988 50.8742 109.179 51.352 110.924 51.9611C114.616 53.2645 116.956 54.5005 118.147 55.5592C118.744 56.0896 118.944 56.4809 118.989 56.7119C119.02 56.8743 119 57.0676 118.731 57.3502C118.431 57.665 117.871 58.0255 116.957 58.3779C116.058 58.7248 114.885 59.0377 113.433 59.2993C110.53 59.8224 106.602 60.1244 101.704 60.1244C91.9698 60.1244 84.0675 59.0774 78.9679 57.3706C76.4017 56.5116 74.6627 55.5234 73.7265 54.5181C73.2697 54.0275 73.033 53.5643 72.9504 53.1349Z" fill="#FCFEFF" stroke="#FA8094" stroke-width="2"/>
</svg>
