<svg width="298" height="271" viewBox="0 0 298 271" fill="none" xmlns="http://www.w3.org/2000/svg">
<path d="M151.255 1.3581L151.249 1.36054L151.249 1.3605C149.78 1.97657 148.842 2.70619 148.326 3.48721C147.82 4.25259 147.689 5.11237 147.918 6.07653C148.389 8.06177 150.386 10.4574 153.77 12.9996C160.496 18.0516 172.317 23.3992 186.563 26.9987L151.255 1.3581ZM151.255 1.3581C153.559 0.358529 156.974 0.255233 160.477 0.92837C163.971 1.59962 167.46 3.02574 169.896 4.98626L169.896 4.9864L169.907 4.99459C174.606 8.57162 181.616 11.5305 189.849 13.8071C198.091 16.0861 207.598 17.6916 217.321 18.541C236.747 20.238 257.127 18.924 270.056 13.8658C274.503 12.1713 279.528 11.2575 284.065 11.1759C288.622 11.094 292.606 11.8527 295.028 13.4226C296.228 14.2005 297.017 15.1583 297.337 16.2894C297.657 17.4205 297.529 18.8008 296.747 20.4652C295.171 23.8199 291.007 28.1802 283.068 33.5839L283.067 33.5845C256.234 51.928 236.228 71.3348 214.932 100.25L214.932 100.25C209.189 108.058 203.766 113.225 198.649 115.881C193.559 118.524 188.776 118.681 184.228 116.471C181.627 115.164 180.186 113.344 179.866 110.864C179.541 108.335 180.369 105.034 182.545 100.773C186.893 92.259 196.465 80.2006 211.969 63.3854C217.005 58.012 221.393 53.0765 224.403 49.4812C225.907 47.6849 227.073 46.2153 227.805 45.1897C228.167 44.6821 228.439 44.2613 228.589 43.9555C228.657 43.8176 228.734 43.6367 228.743 43.4587C228.748 43.366 228.74 43.1934 228.613 43.0387C228.474 42.868 228.284 42.8287 228.159 42.8287C228.035 42.8287 227.886 42.8635 227.763 42.8956C227.621 42.9327 227.444 42.9859 227.238 43.0528C226.824 43.1869 226.27 43.3828 225.594 43.6327C224.241 44.1329 222.385 44.8555 220.161 45.7476C215.713 47.532 209.784 49.9985 203.45 52.7287L203.45 52.729C174.926 65.0682 147.334 81.7265 129.563 95.7078C120.691 102.688 114.215 109.04 111.319 113.884C109.881 116.288 109.246 118.451 109.818 120.168C110.408 121.936 112.182 122.994 114.947 123.399L114.947 123.399C139.47 126.975 155.599 145.416 160.287 165.711C164.974 186.001 158.213 208.06 137.03 218.938C112.012 231.717 88.0406 229.06 72.4335 216.876C56.8344 204.698 49.4859 182.921 57.8702 157.215L57.8727 157.207C58.4415 155.356 58.9316 153.674 59.2392 152.45C59.3922 151.841 59.5041 151.331 59.5562 150.965C59.5813 150.789 59.5976 150.613 59.5867 150.468C59.5817 150.401 59.5681 150.288 59.5114 150.177C59.444 150.045 59.2837 149.869 59.018 149.869C56.7237 149.869 53.9752 150.809 50.9133 152.476C47.8414 154.149 44.4067 156.579 40.7272 159.623C33.3673 165.711 24.9868 174.283 16.5144 184.244C-0.428665 204.162 -17.7844 229.684 -28.1157 252.094C-30.307 256.803 -32.0647 260.417 -33.621 263.151C-35.1801 265.89 -36.5155 267.706 -37.8489 268.848C-39.1617 269.973 -40.4822 270.453 -42.0572 270.497C-43.662 270.541 -45.5446 270.133 -47.9758 269.43C-50.186 268.788 -51.8715 267.826 -53.0792 266.498C-54.2843 265.173 -55.0468 263.447 -55.3504 261.216C-55.962 256.722 -54.7019 250.262 -51.5388 241.202L-51.5383 241.201C-43.0471 216.642 -25.6064 191.133 -4.58382 170.111C16.4413 149.086 41.0033 132.597 63.7018 126.026L63.7025 126.026C67.0724 125.045 69.4176 124.006 71.965 121.809C74.4866 119.635 77.1948 116.335 81.33 110.883L81.3303 110.883C111.544 70.9817 152.809 52.9174 196.927 33.6045C198.419 32.9511 199.915 32.2962 201.414 31.639L202.754 31.0514L201.335 30.696L186.564 26.999L151.255 1.3581ZM101.827 212.298L101.828 212.298C118.184 208.286 129.261 195.098 133.054 180.645C136.847 166.193 133.375 150.377 120.506 141.16C115.172 137.333 109.756 135.389 105.12 135.367C100.469 135.344 96.5867 137.262 94.4533 141.15L94.4523 141.152C85.5598 157.521 82.169 176.459 83.5587 190.712C84.2529 197.833 86.1461 203.843 89.2006 207.775C90.7321 209.747 92.5635 211.205 94.6883 212.005C96.8157 212.806 99.2044 212.935 101.827 212.298Z" fill="#FEFEFF" stroke="black"/>
</svg>
